<?xml version="1.0" encoding="utf-8"?>
<!-- Generator: Adobe Illustrator 24.1.2, SVG Export Plug-In . SVG Version: 6.00 Build 0)  -->
<svg version="1.1" id="Layer_1" xmlns="http://www.w3.org/2000/svg" xmlns:xlink="http://www.w3.org/1999/xlink" x="0px" y="0px"
	 viewBox="0 0 916 233.6" style="enable-background:new 0 0 916 233.6;" xml:space="preserve">
<style type="text/css">
	.st0{fill:#333333;}
	.st1{fill:#3BD4AE;}
	.st2{fill:#666666;}
</style>
<g>
	<path class="st0" d="M218.3,123.8l25.7,21.8c-16.8,19.8-41.5,31.2-67.4,31.1c-47.5,0-86.2-37.3-86.2-83.4s38.7-83.7,86.2-83.7
		c26-0.1,50.7,11.4,67.4,31.3l-25.7,21.8C208.8,49,193.2,40.9,176.6,41c-28.5,0-51.9,20.9-51.9,52.1c0,30.8,23.4,52.2,51.9,52.2
		C193.2,145.4,208.8,137.3,218.3,123.8z"/>
	<path class="st0" d="M390.5,48.9v125.8h-32.2v-9.3c-10.9,7.3-23.7,11.2-36.9,11.1c-39.4,0-62.6-31.8-62.6-65.1
		c0-33.6,23.2-65.1,62.6-65.1c13,0.2,25.7,3.8,36.9,10.4v-7.9H390.5z M358.3,86.4c-7.9-6.7-19-10.9-31.1-10.9
		c-22.9,0-37.3,17.2-37.3,35.9c0,19,14.6,36.2,37.3,36.2c12.3,0,23.2-3.9,31.1-10.7V86.4z"/>
	<path class="st0" d="M526.2,151.3c-11.4,15.5-29.2,25.3-48.7,25.3c-38,0-68.8-29-68.8-64.9c0-36.2,30.8-65.1,68.8-65.1
		c19.4,0,37.7,9.3,49.1,25l-20.9,19.3c-6.3-9.5-16.9-15.2-28.3-15.3c-20.4,0-37.1,16.2-37.1,36.2c0,19.7,16.7,35.9,37.1,35.9
		c11.4-0.1,22.1-5.9,28.3-15.5L526.2,151.3z"/>
	<path class="st0" d="M596.5,75.6v44.5c0,22.5,3.7,29,19.9,29c5-0.1,9.9-0.5,14.8-1.2V172c-1.4,0.5-11.1,4.6-29.2,4.6
		c-21.1,0-38-13.2-38-39.6V75.6h-17.8V48.9h17.8V0h32.5v48.9h35.2v26.7H596.5z"/>
	<path class="st0" d="M782,48.9v125.8h-32.2v-8.3c-10.1,6.8-22.1,10.3-34.3,10.2c-36.8,0-53.8-17.1-53.8-57.9V48.9H694v69.8
		c0,19.5,9.5,29,27.3,29c11.6,0,21.1-3.7,28.5-10V48.9H782z"/>
	<path class="st0" d="M822.4,140.7c15.5,6.7,27.3,10.2,43.1,10.2c14.8,0,20.6-5.6,20.6-12.1c0-7.2-7.2-10.4-26.7-14.6
		c-27.1-6-46.8-14.8-46.8-39.2c0-22.7,18.8-38.5,48-38.5c19.7,0,35.5,4.6,49.1,10.2l-10.7,23.6c-12.3-4.6-26.7-8.1-39.2-8.1
		c-12.3,0-18.5,4.4-18.5,11.1c0,6.9,7.7,10.2,27.8,14.4c29.2,6,46.1,16.2,46.1,39.2c0,23.9-18.3,39.6-50.5,39.6
		c-21.8,0-35.9-3-54.5-12.1L822.4,140.7z"/>
	<circle class="st1" cx="37.9" cy="138.7" r="37.9"/>
	<path class="st2" d="M418.7,204.4H410c-0.3,0-0.5,0.2-0.5,0.5V233c0,0.3,0.2,0.5,0.5,0.5h9.6c8-0.4,14.2-7.2,13.8-15.3
		C433,210.4,426.5,204.3,418.7,204.4L418.7,204.4z M412,206.7h6.7c6.7,0,12.2,5.5,12.2,12.3c-0.1,6.4-5,11.7-11.4,12.2H412V206.7z"
		/>
	<path class="st2" d="M451,204.4h1.5c0.3,0,0.5,0.2,0.5,0.5V233c0,0.3-0.2,0.5-0.5,0.5H451c-0.3,0-0.5-0.2-0.5-0.5v-28.2
		C450.5,204.6,450.7,204.4,451,204.4z"/>
	<path class="st2" d="M496.8,219.5h-12.9c-0.2,0-0.5,0.2-0.5,0.4c0,0,0,0,0,0v1.4c0,0.3,0.2,0.5,0.5,0.5h10.9v6.3
		c-3,2.1-6.5,3.3-10.2,3.2c-6.9,0.1-12.7-5.4-12.8-12.3c0-6.8,5.8-12.3,12.8-12.3c3.6-0.1,7.1,1.2,9.8,3.5c0.2,0.2,0.5,0.2,0.6,0
		l1-1.1c0.1-0.1,0.1-0.2,0.1-0.3c0-0.1-0.1-0.2-0.1-0.3c-3.1-2.8-7.2-4.3-11.4-4.2c-8.4,0-15.3,6.6-15.3,14.7s6.9,14.7,15.3,14.7
		c4.5,0,8.9-1.5,12.4-4.3c0.1-0.1,0.2-0.2,0.2-0.4V220C497.2,219.7,497,219.5,496.8,219.5C496.8,219.5,496.8,219.5,496.8,219.5z"/>
	<path class="st2" d="M515.3,204.4h1.5c0.3,0,0.5,0.2,0.5,0.5V233c0,0.3-0.2,0.5-0.5,0.5h-1.5c-0.3,0-0.5-0.2-0.5-0.5v-28.2
		C514.8,204.6,515,204.4,515.3,204.4z"/>
	<path class="st2" d="M556.8,204.4h-22c-0.3,0-0.5,0.2-0.5,0.5c0,0,0,0,0,0v1.4c0,0.2,0.2,0.5,0.4,0.5c0,0,0,0,0,0h9.8V233
		c0,0.3,0.2,0.5,0.5,0.5h1.5c0.3,0,0.5-0.2,0.5-0.4c0,0,0,0,0,0v-26.3h9.8c0.2,0,0.5-0.2,0.5-0.4c0,0,0,0,0,0v-1.4
		C557.2,204.6,557,204.4,556.8,204.4z"/>
	<path class="st2" d="M582.5,204.7c-0.1-0.2-0.2-0.3-0.4-0.3H581c-0.2,0-0.3,0.1-0.4,0.3l-12.7,28.2c-0.1,0.1-0.1,0.3,0,0.4
		c0.1,0.1,0.2,0.2,0.4,0.2h1.6c0.2,0,0.3-0.1,0.4-0.3l3.5-7.9h15.5l3.5,7.9c0.1,0.2,0.2,0.3,0.4,0.3h1.6c0.2,0,0.3-0.1,0.4-0.2
		c0.1-0.1,0.1-0.3,0-0.4L582.5,204.7z M588.3,223.1h-13.6l6.8-15.3L588.3,223.1z"/>
	<path class="st2" d="M629.6,231.2h-16.1v-26.3c0-0.3-0.2-0.5-0.5-0.5l0,0h-1.5c-0.3,0-0.5,0.2-0.5,0.5V233c0,0.3,0.2,0.5,0.5,0.5
		h18.1c0.2,0,0.4-0.2,0.4-0.5v-1.4C630,231.4,629.8,231.2,629.6,231.2z"/>
	<path class="st2" d="M697.4,219.5h-12.9c-0.2,0-0.5,0.2-0.5,0.4c0,0,0,0,0,0v1.4c0,0.3,0.2,0.5,0.5,0.5l0,0h10.9v6.3
		c-3,2.1-6.5,3.3-10.2,3.2c-6.9,0.1-12.7-5.4-12.8-12.3c0-6.8,5.8-12.3,12.8-12.3c3.6-0.1,7.1,1.2,9.8,3.5c0.2,0.2,0.5,0.2,0.7,0
		l1-1.1c0.1-0.1,0.1-0.2,0.1-0.3c0-0.1-0.1-0.2-0.2-0.3c-3.1-2.8-7.2-4.3-11.4-4.2c-8.4,0-15.3,6.6-15.3,14.7s6.8,14.7,15.3,14.7
		c4.5,0,8.9-1.4,12.4-4.2c0.1-0.1,0.2-0.2,0.2-0.4V220C697.9,219.7,697.7,219.5,697.4,219.5C697.4,219.5,697.4,219.5,697.4,219.5z"
		/>
	<path class="st2" d="M730.5,223.1c4.2-1.3,6.5-4.5,6.5-9.3c0-2.8-1-9.4-10.2-9.4h-10.8c-0.3,0-0.5,0.2-0.5,0.5V233
		c0,0.3,0.2,0.5,0.5,0.5h1.5c0.3,0,0.5-0.2,0.5-0.5v-9.2h7.8c0.8,0,1.6,0,2.3-0.1l7.1,9.6c0.1,0.1,0.2,0.2,0.4,0.2h1.8
		c0.2,0,0.3-0.1,0.4-0.3c0.1-0.2,0.1-0.3,0-0.5L730.5,223.1z M717.8,206.7h8.8c6.8,0,7.8,4.5,7.8,7.2c0,6.3-4.8,7.6-8.8,7.6h-7.8
		V206.7z"/>
	<path class="st2" d="M767.9,204.3c-8.4,0-15.3,6.6-15.3,14.7s6.8,14.7,15.3,14.7s15.2-6.6,15.2-14.7S776.3,204.3,767.9,204.3z
		 M767.9,231.3c-7.1,0-12.8-5.5-12.8-12.3c-0.3-7.1,5.2-13.1,12.3-13.4c7.1-0.3,13.1,5.2,13.4,12.3s-5.2,13.1-12.3,13.4
		C768.3,231.3,768.1,231.3,767.9,231.3z"/>
	<path class="st2" d="M838.3,204.4h-1.6c-0.2,0-0.4,0.1-0.4,0.3l-9.1,24.2l-8.8-24.2c-0.1-0.2-0.2-0.3-0.4-0.3h-1
		c-0.2,0-0.4,0.1-0.4,0.3l-8.8,24.2l-9.1-24.2c-0.1-0.2-0.2-0.3-0.4-0.3h-1.6c-0.2,0-0.3,0.1-0.4,0.2c-0.1,0.1-0.1,0.3,0,0.4
		l10.7,28.1c0.1,0.2,0.2,0.3,0.4,0.3h0.9c0.2,0,0.4-0.1,0.4-0.3l8.8-24.3l8.8,24.3c0.1,0.2,0.2,0.3,0.4,0.3h0.9
		c0.2,0,0.4-0.1,0.4-0.3l10.7-28.2c0.1-0.1,0.1-0.3,0-0.4C838.6,204.4,838.5,204.4,838.3,204.4z"/>
	<path class="st2" d="M876.3,204.4h-22c-0.3,0-0.5,0.2-0.5,0.5v1.4c0,0.3,0.2,0.5,0.5,0.5l0,0h9.8V233c0,0.3,0.2,0.5,0.5,0.5h1.5
		c0.3,0,0.5-0.2,0.5-0.5v-26.3h9.8c0.3,0,0.5-0.2,0.5-0.5c0,0,0,0,0,0v-1.4C876.7,204.6,876.5,204.4,876.3,204.4z"/>
	<path class="st2" d="M915.5,204.4h-1.5c-0.3,0-0.5,0.2-0.5,0.5v14.5h-17.5v-14.5c0-0.3-0.2-0.5-0.5-0.5h-1.5
		c-0.3,0-0.5,0.2-0.5,0.5V233c0,0.3,0.2,0.5,0.5,0.5h1.5c0.3,0,0.5-0.2,0.5-0.5v-11.3h17.5V233c0,0.3,0.2,0.5,0.5,0.5h1.5
		c0.3,0,0.5-0.2,0.5-0.5v-28.1C916,204.6,915.8,204.4,915.5,204.4z"/>
</g>
</svg>
