<svg id="Layer_1" data-name="Layer 1" xmlns="http://www.w3.org/2000/svg" viewBox="0 0 916 233.64"><defs><style>.cls-1{fill:#fff;}.cls-2{fill:#3bd4ae;}</style></defs><title>Logo_White</title><path class="cls-1" d="M218.33,123.76l25.72,21.78a87.57,87.57,0,0,1-67.44,31.05c-47.51,0-86.21-37.31-86.21-83.43S129.1,9.5,176.61,9.5a87.77,87.77,0,0,1,67.44,31.29L218.33,62.57A50.74,50.74,0,0,0,176.61,41c-28.5,0-51.91,20.86-51.91,52.14,0,30.83,23.41,52.15,51.91,52.15A50.74,50.74,0,0,0,218.33,123.76Z"/><path class="cls-1" d="M390.52,48.9V174.74H358.31v-9.27a65.9,65.9,0,0,1-36.85,11.12c-39.4,0-62.57-31.75-62.57-65.12,0-33.6,23.17-65.12,62.57-65.12a74,74,0,0,1,36.85,10.43V48.9ZM358.31,86.44c-7.88-6.72-19-10.89-31.06-10.89-22.94,0-37.31,17.15-37.31,35.92,0,19,14.6,36.16,37.31,36.16,12.29,0,23.18-3.94,31.06-10.66Z"/><path class="cls-1" d="M526.22,151.33c-11.36,15.53-29.2,25.26-48.67,25.26-38,0-68.83-29-68.83-64.89,0-36.15,30.83-65.12,68.83-65.12a60.8,60.8,0,0,1,49.13,25L505.83,90.85a34.24,34.24,0,0,0-28.28-15.3c-20.39,0-37.08,16.22-37.08,36.15,0,19.7,16.69,35.93,37.08,35.93a33.9,33.9,0,0,0,28.28-15.53Z"/><path class="cls-1" d="M596.55,75.55v44.5c0,22.48,3.7,29,19.93,29a134,134,0,0,0,14.83-1.16V172c-1.39.46-11.12,4.63-29.2,4.63-21.09,0-38-13.21-38-39.62V75.55H546.26V48.9H564.1V0h32.45V48.9h35.22V75.55Z"/><path class="cls-1" d="M782.05,48.9V174.74H749.84V166.4a60.47,60.47,0,0,1-34.3,10.19c-36.85,0-53.77-17.15-53.77-57.93V48.9H694v69.76c0,19.46,9.51,29,27.35,29,11.59,0,21.09-3.71,28.51-10V48.9Z"/><path class="cls-1" d="M822.37,140.67c15.53,6.72,27.34,10.2,43.1,10.2,14.84,0,20.63-5.56,20.63-12.05,0-7.19-7.18-10.43-26.65-14.6-27.12-6-46.82-14.83-46.82-39.17,0-22.71,18.78-38.47,48-38.47,19.7,0,35.45,4.64,49.13,10.2L899.08,80.42c-12.29-4.64-26.65-8.11-39.17-8.11-12.28,0-18.54,4.4-18.54,11.12,0,6.95,7.65,10.2,27.81,14.37,29.2,6,46.12,16.22,46.12,39.17,0,23.87-18.31,39.62-50.52,39.62-21.79,0-35.92-3-54.46-12.05Z"/><circle class="cls-2" cx="37.94" cy="138.66" r="37.94"/><path class="cls-1" d="M418.68,204.4H410a.47.47,0,0,0-.47.46V233a.47.47,0,0,0,.47.46h9.61a14.55,14.55,0,0,0-.95-29.08ZM412,206.72h6.72A12.23,12.23,0,0,1,430.88,219a12.45,12.45,0,0,1-11.42,12.2H412Z"/><rect class="cls-1" x="450.52" y="204.4" width="2.4" height="29.08" rx="0.46" ry="0.46"/><path class="cls-1" d="M496.75,219.5H483.89a.45.45,0,0,0-.46.46v1.36a.46.46,0,0,0,.46.46h10.92v6.29a17,17,0,0,1-10.2,3.21A12.6,12.6,0,0,1,471.77,219c0-6.77,5.76-12.28,12.84-12.28a14.33,14.33,0,0,1,9.79,3.52.46.46,0,0,0,.65,0l1-1.08a.45.45,0,0,0,.12-.33.44.44,0,0,0-.15-.32,16.41,16.41,0,0,0-11.41-4.16c-8.42,0-15.28,6.59-15.28,14.68s6.86,14.68,15.28,14.68A19.87,19.87,0,0,0,497,229.42a.45.45,0,0,0,.17-.36V220A.46.46,0,0,0,496.75,219.5Z"/><rect class="cls-1" x="514.81" y="204.4" width="2.4" height="29.08" rx="0.46" ry="0.46"/><path class="cls-1" d="M556.8,204.4h-22a.46.46,0,0,0-.46.46v1.4a.45.45,0,0,0,.46.46h9.76V233a.47.47,0,0,0,.46.46h1.48A.47.47,0,0,0,547,233v-26.3h9.8a.45.45,0,0,0,.46-.46v-1.4A.46.46,0,0,0,556.8,204.4Z"/><path class="cls-1" d="M582.5,204.67a.46.46,0,0,0-.42-.27H581a.46.46,0,0,0-.42.27l-12.7,28.16a.49.49,0,0,0,0,.44.47.47,0,0,0,.39.21h1.6a.46.46,0,0,0,.42-.27l3.47-7.88h15.5l3.51,7.88a.46.46,0,0,0,.42.27h1.56a.47.47,0,0,0,.39-.21.49.49,0,0,0,0-.44Zm5.81,18.46H574.72l6.76-15.33Z"/><path class="cls-1" d="M629.56,231.2H613.44V204.86a.46.46,0,0,0-.46-.46H611.5a.47.47,0,0,0-.46.46V233a.47.47,0,0,0,.46.46h18.06A.47.47,0,0,0,630,233v-1.36A.47.47,0,0,0,629.56,231.2Z"/><path class="cls-1" d="M697.4,219.5H684.54a.45.45,0,0,0-.46.46v1.36a.46.46,0,0,0,.46.46h10.92v6.29a17.06,17.06,0,0,1-10.2,3.21A12.6,12.6,0,0,1,672.42,219c0-6.77,5.76-12.28,12.84-12.28a14.33,14.33,0,0,1,9.79,3.52.46.46,0,0,0,.65,0l1-1.08a.45.45,0,0,0,.12-.33.44.44,0,0,0-.15-.32,16.41,16.41,0,0,0-11.41-4.16c-8.43,0-15.28,6.59-15.28,14.68s6.85,14.68,15.28,14.68a19.87,19.87,0,0,0,12.43-4.22.45.45,0,0,0,.17-.36V220A.46.46,0,0,0,697.4,219.5Z"/><path class="cls-1" d="M730.48,223.14c4.24-1.26,6.47-4.46,6.47-9.29,0-2.84-1-9.45-10.24-9.45H715.88a.47.47,0,0,0-.46.46V233a.47.47,0,0,0,.46.46h1.48a.47.47,0,0,0,.46-.46v-9.24h7.85c.78,0,1.57,0,2.3-.1l7.07,9.61a.47.47,0,0,0,.37.19h1.84a.47.47,0,0,0,.41-.25.48.48,0,0,0,0-.49Zm-12.66-16.42h8.81c6.82,0,7.84,4.49,7.84,7.17,0,6.28-4.81,7.6-8.84,7.6h-7.81Z"/><path class="cls-1" d="M767.92,204.28c-8.43,0-15.28,6.59-15.28,14.68s6.85,14.68,15.28,14.68,15.23-6.59,15.23-14.68S776.32,204.28,767.92,204.28Zm0,27c-7.08,0-12.84-5.51-12.84-12.28a12.83,12.83,0,1,1,12.84,12.28Z"/><path class="cls-1" d="M838.32,204.4h-1.6a.46.46,0,0,0-.43.3l-9.07,24.23-8.8-24.22a.45.45,0,0,0-.43-.31h-1a.45.45,0,0,0-.43.31l-8.8,24.22-9.07-24.23a.45.45,0,0,0-.43-.3h-1.6a.48.48,0,0,0-.38.2.5.5,0,0,0-.05.43l10.66,28.15a.47.47,0,0,0,.44.3h.87a.47.47,0,0,0,.44-.3l8.83-24.33,8.83,24.33a.46.46,0,0,0,.43.3h.92a.47.47,0,0,0,.44-.3L838.75,205a.5.5,0,0,0,0-.43A.48.48,0,0,0,838.32,204.4Z"/><path class="cls-1" d="M876.25,204.4h-22a.47.47,0,0,0-.46.46v1.4a.46.46,0,0,0,.46.46H864V233a.47.47,0,0,0,.47.46H866a.47.47,0,0,0,.47-.46v-26.3h9.8a.46.46,0,0,0,.46-.46v-1.4A.47.47,0,0,0,876.25,204.4Z"/><path class="cls-1" d="M915.54,204.4h-1.48a.47.47,0,0,0-.46.46v14.52H896.07V204.86a.47.47,0,0,0-.46-.46h-1.48a.47.47,0,0,0-.46.46V233a.47.47,0,0,0,.46.46h1.48a.47.47,0,0,0,.46-.46V221.7H913.6V233a.47.47,0,0,0,.46.46h1.48A.47.47,0,0,0,916,233V204.86A.47.47,0,0,0,915.54,204.4Z"/></svg>